<svg width="60" height="60" viewBox="0 0 60 60" fill="none" xmlns="http://www.w3.org/2000/svg">
<g id="Group 15">
<path id="Oval 2" opacity="0.1" fill-rule="evenodd" clip-rule="evenodd" d="M30 60C46.5685 60 60 46.5685 60 30C60 13.4315 46.5685 0 30 0C13.4315 0 0 13.4315 0 30C0 46.5685 13.4315 60 30 60Z" fill="#D8D8D8"/>
<path id="Combined Shape" fill-rule="evenodd" clip-rule="evenodd" d="M22.2021 35.204C22.7603 35.204 23.2129 35.6462 23.2129 36.1914C23.2129 36.7367 22.7603 37.1789 22.2021 37.1789C21.644 37.1789 21.1913 36.7367 21.1913 36.1914C21.1913 35.6462 21.644 35.204 22.2021 35.204ZM25.6256 28.4358H20V38.2956H25.6256V28.4358ZM26.2874 28.9204V37.7732L28.2183 38.4845C29.0453 38.7802 29.9831 39.1044 30.8931 39.3465C31.8027 39.5891 32.6851 39.7509 33.6234 39.8577C34.5606 39.966 35.5528 40.0196 36.2695 39.9935C36.9867 39.9664 37.4284 39.8582 37.8151 39.6698C38.2004 39.4813 38.5313 39.2112 38.7801 38.915C39.0279 38.6188 39.1936 38.2956 39.2762 38.0264C39.3593 37.7573 39.3593 37.5413 39.386 37.3258C39.4142 37.1099 39.4691 36.8948 39.5245 36.733C39.5794 36.5716 39.6348 36.4638 39.7169 36.3025L39.9934 35.7366C40.076 35.5477 40.1309 35.3859 40.159 35.1708C40.1858 34.9553 40.1858 34.6853 40.1858 34.4436C40.1858 34.2011 40.1858 33.9851 40.2412 33.7435C40.2961 33.5009 40.4069 33.2313 40.4899 33.0154L40.6824 32.4766C40.7382 32.3152 40.7931 32.1538 40.7931 31.992C40.7931 31.8301 40.7382 31.6687 40.6824 31.5064C40.627 31.345 40.5721 31.1836 40.5721 31.0488C40.5721 30.914 40.627 30.8063 40.7101 30.6174C40.7931 30.4294 40.9025 30.1593 40.9588 29.8636C41.0137 29.5669 41.0137 29.2437 40.9588 28.9204C40.9025 28.5981 40.7931 28.2734 40.5998 27.9777C40.4069 27.6815 40.1309 27.4124 39.8282 27.2235C39.5245 27.0346 39.1936 26.9268 38.5313 26.8727C37.8695 26.8191 36.8774 26.8191 36.2428 26.792C35.6087 26.7654 35.3327 26.7118 35.1952 26.6577C35.0572 26.6036 35.0572 26.5499 35.167 26.3344C35.2778 26.1189 35.4979 25.742 35.6636 25.3376C35.8288 24.9332 35.9401 24.5027 35.995 24.0171C36.0499 23.5324 36.0499 22.9937 35.995 22.5091C35.9401 22.0239 35.8288 21.5929 35.6087 21.2161C35.3876 20.8392 35.0572 20.5154 34.5879 20.2999C34.119 20.0849 33.5126 19.9767 33.0442 20.0042C32.5753 20.0308 32.2439 20.1922 32.0238 20.5154C31.8027 20.8392 31.6929 21.3238 31.5826 21.9437C31.4714 22.5632 31.362 23.3169 30.9204 24.1794C30.4792 25.0409 29.7076 26.0107 29.042 26.7384C28.3768 27.466 27.8191 27.9507 27.377 28.2748C26.9363 28.5981 26.6116 28.759 26.2874 28.9204Z" fill="#DE3C3C"/>
</g>
</svg>
