<svg width="60" height="60" viewBox="0 0 60 60" fill="none" xmlns="http://www.w3.org/2000/svg">
<g id="Group 15">
<path id="Oval 2" fill-rule="evenodd" clip-rule="evenodd" d="M30 60C46.5685 60 60 46.5685 60 30C60 13.4315 46.5685 0 30 0C13.4315 0 0 13.4315 0 30C0 46.5685 13.4315 60 30 60Z" fill="white"/>
<path id="Combined Shape" fill-rule="evenodd" clip-rule="evenodd" d="M40 27.5645V21.0486C40 20.4723 39.5277 20 38.9513 20H29.0444C28.464 20 27.9917 20.4723 27.9917 21.0486V27.5645C27.9917 28.1449 28.464 28.6172 29.0444 28.6172H30.1412V31.0586C30.1412 31.2187 30.2373 31.3668 30.3854 31.4269C30.4374 31.4469 30.4894 31.4588 30.5415 31.4588C30.6456 31.4588 30.7456 31.4189 30.8217 31.3428L33.5476 28.6172H38.9513C39.5277 28.6172 40 28.1449 40 27.5645ZM33.6036 37.6946C33.6036 37.5025 33.5275 37.3184 33.3914 37.1823L30.7216 34.5127C30.4374 34.2286 29.9731 34.2286 29.6889 34.5127L28.8003 35.4012C28.5681 35.6334 27.3753 35.3412 26.0184 33.9804C24.6574 32.6236 24.3652 31.4308 24.5974 31.1987L25.486 30.3102C25.7702 30.026 25.7702 29.5617 25.486 29.2775L22.8162 26.608C22.5319 26.3238 22.0716 26.3238 21.7874 26.608L20.5386 27.8567C19.1296 29.2655 20.5746 32.9158 23.8288 36.1697C26.2385 38.5791 28.8683 40 30.6415 40C31.262 40 31.7783 39.8239 32.1426 39.4597L33.3914 38.2109C33.5275 38.0748 33.6036 37.8907 33.6036 37.6946Z" fill="#414141"/>
</g>
</svg>
