<svg width="60" height="60" viewBox="0 0 60 60" fill="none" xmlns="http://www.w3.org/2000/svg">
<g id="Group 15">
<path id="Oval 2" opacity="0.1" fill-rule="evenodd" clip-rule="evenodd" d="M30 60C46.5685 60 60 46.5685 60 30C60 13.4315 46.5685 0 30 0C13.4315 0 0 13.4315 0 30C0 46.5685 13.4315 60 30 60Z" fill="#D8D8D8"/>
<path id="Shape" fill-rule="evenodd" clip-rule="evenodd" d="M37.4207 21L37.7887 21.1088C38.5078 21.3213 39.0002 21.9731 39 22.7123V31.6317C38.9998 33.9555 38.0182 36.1746 36.2902 37.7576C33.027 40.7475 27.9722 40.7475 24.709 37.7576C22.9813 36.1745 22 33.9554 22 31.6317V22.7123C21.9998 21.9731 22.4922 21.3213 23.2113 21.1088L23.5793 21C28.0937 19.6667 32.9063 19.6667 37.4207 21ZM29.2938 32.6091L35.2439 28.4248L35.243 28.4231C35.6251 28.1546 35.7138 27.6319 35.441 27.2557C35.1683 26.8794 34.6374 26.7921 34.2553 27.0607L28.891 30.8333L26.851 28.8248C26.5174 28.5076 25.9873 28.5122 25.6594 28.835C25.3315 29.1578 25.3269 29.6798 25.649 30.0081L28.199 32.5188C28.2454 32.5568 28.2958 32.5896 28.3495 32.6167C28.3808 32.6404 28.4137 32.662 28.4481 32.6811C28.5579 32.7336 28.678 32.7621 28.8 32.7648C28.8989 32.7628 28.9967 32.7438 29.089 32.7087C29.1181 32.6967 29.1465 32.683 29.174 32.6677C29.2155 32.6515 29.2556 32.6319 29.2938 32.6091Z" fill="#DE3C3C"/>
</g>
</svg>
