<svg style="visibility: hidden; position: absolute;" aria-hidden="true">
    <symbol id="arrow" viewBox="0 0 11 12" xmlns="http://www.w3.org/2000/svg">
        <g id="arrow-right__arrow">
            <path id="Shape__arrow" d="M1 6H11"  stroke-linecap="round" stroke-linejoin="round" />
            <path id="Shape_2__arrow" d="M6 1L11 6L6 11"  stroke-linecap="round"
                stroke-linejoin="round" />
        </g>
    </symbol>
    <symbol id="like" viewBox="0 0 60 60" xmlns="http://www.w3.org/2000/svg">
        <g id="Group 15__like">
            <path id="Oval 2__like" opacity="0.1" fill-rule="evenodd" clip-rule="evenodd"
                d="M30 60C46.5685 60 60 46.5685 60 30C60 13.4315 46.5685 0 30 0C13.4315 0 0 13.4315 0 30C0 46.5685 13.4315 60 30 60Z"
                fill="#D8D8D8" />
            <path id="Combined Shape__like" fill-rule="evenodd" clip-rule="evenodd"
                d="M22.2021 35.204C22.7603 35.204 23.2129 35.6462 23.2129 36.1914C23.2129 36.7367 22.7603 37.1789 22.2021 37.1789C21.644 37.1789 21.1913 36.7367 21.1913 36.1914C21.1913 35.6462 21.644 35.204 22.2021 35.204ZM25.6256 28.4358H20V38.2956H25.6256V28.4358ZM26.2874 28.9204V37.7732L28.2183 38.4845C29.0453 38.7802 29.9831 39.1044 30.8931 39.3465C31.8027 39.5891 32.6851 39.7509 33.6234 39.8577C34.5606 39.966 35.5528 40.0196 36.2695 39.9935C36.9867 39.9664 37.4284 39.8582 37.8151 39.6698C38.2004 39.4813 38.5313 39.2112 38.7801 38.915C39.0279 38.6188 39.1936 38.2956 39.2762 38.0264C39.3593 37.7573 39.3593 37.5413 39.386 37.3258C39.4142 37.1099 39.4691 36.8948 39.5245 36.733C39.5794 36.5716 39.6348 36.4638 39.7169 36.3025L39.9934 35.7366C40.076 35.5477 40.1309 35.3859 40.159 35.1708C40.1858 34.9553 40.1858 34.6853 40.1858 34.4436C40.1858 34.2011 40.1858 33.9851 40.2412 33.7435C40.2961 33.5009 40.4069 33.2313 40.4899 33.0154L40.6824 32.4766C40.7382 32.3152 40.7931 32.1538 40.7931 31.992C40.7931 31.8301 40.7382 31.6687 40.6824 31.5064C40.627 31.345 40.5721 31.1836 40.5721 31.0488C40.5721 30.914 40.627 30.8063 40.7101 30.6174C40.7931 30.4294 40.9025 30.1593 40.9588 29.8636C41.0137 29.5669 41.0137 29.2437 40.9588 28.9204C40.9025 28.5981 40.7931 28.2734 40.5998 27.9777C40.4069 27.6815 40.1309 27.4124 39.8282 27.2235C39.5245 27.0346 39.1936 26.9268 38.5313 26.8727C37.8695 26.8191 36.8774 26.8191 36.2428 26.792C35.6087 26.7654 35.3327 26.7118 35.1952 26.6577C35.0572 26.6036 35.0572 26.5499 35.167 26.3344C35.2778 26.1189 35.4979 25.742 35.6636 25.3376C35.8288 24.9332 35.9401 24.5027 35.995 24.0171C36.0499 23.5324 36.0499 22.9937 35.995 22.5091C35.9401 22.0239 35.8288 21.5929 35.6087 21.2161C35.3876 20.8392 35.0572 20.5154 34.5879 20.2999C34.119 20.0849 33.5126 19.9767 33.0442 20.0042C32.5753 20.0308 32.2439 20.1922 32.0238 20.5154C31.8027 20.8392 31.6929 21.3238 31.5826 21.9437C31.4714 22.5632 31.362 23.3169 30.9204 24.1794C30.4792 25.0409 29.7076 26.0107 29.042 26.7384C28.3768 27.466 27.8191 27.9507 27.377 28.2748C26.9363 28.5981 26.6116 28.759 26.2874 28.9204Z" />
        </g>
    </symbol>
    <symbol id="logo" viewBox="0 0 91 34" xmlns="http://www.w3.org/2000/svg">
        <g id="Group 4__logo">
            <g id="Group 2__logo">
                <path id="hostus__logo" fill-rule="evenodd" clip-rule="evenodd"
                    d="M37.9016 17.6296V5.67926H39.8897V10.3284C40.4483 9.50993 41.2534 8.806 42.6008 8.806C44.556 8.806 45.6897 10.1156 45.6897 12.1292V17.6296H43.7016V12.7185C43.7016 11.3761 43.0279 10.6067 41.8449 10.6067C40.6948 10.6067 39.8897 11.4089 39.8897 12.7513V17.6296H37.9016ZM52.2126 17.8261C49.5673 17.8261 47.6121 15.8125 47.6121 13.357V13.3242C47.6121 10.8523 49.5837 8.806 52.2455 8.806C54.9072 8.806 56.8625 10.8196 56.8625 13.2915V13.3242C56.8625 15.7798 54.8908 17.8261 52.2126 17.8261ZM52.2455 16.1072C53.8557 16.1072 54.8744 14.8467 54.8744 13.357V13.3242C54.8744 11.8018 53.7735 10.5413 52.2126 10.5413C50.6189 10.5413 49.6002 11.7854 49.6002 13.2915V13.3242C49.6002 14.8303 50.701 16.1072 52.2455 16.1072ZM61.8574 17.7933C60.6251 17.7933 59.2613 17.3513 58.1769 16.5001L59.0642 15.1577C60.0007 15.8616 61.0194 16.2218 61.9067 16.2218C62.761 16.2218 63.254 15.8616 63.254 15.2887V15.2559C63.254 14.5847 62.3338 14.3556 61.3152 14.0445C60.0336 13.6844 58.6041 13.1605 58.6041 11.5071V11.4744C58.6041 9.83733 59.9678 8.83874 61.6931 8.83874C62.7775 8.83874 63.9605 9.21526 64.8806 9.82096L64.0919 11.2288C63.254 10.7213 62.3667 10.4103 61.6438 10.4103C60.8715 10.4103 60.4279 10.7704 60.4279 11.2779V11.3107C60.4279 11.9327 61.3644 12.1947 62.3831 12.5221C63.6483 12.915 65.0777 13.4879 65.0777 15.0431V15.0759C65.0777 16.893 63.6647 17.7933 61.8574 17.7933ZM70.0069 17.777C68.5446 17.777 67.5095 17.1385 67.5095 15.2396V10.6886H66.4086V8.98608H67.5095V6.61237H69.4976V8.98608H71.8307V10.6886H69.4976V14.9285C69.4976 15.6979 69.8919 16.009 70.5656 16.009C71.0092 16.009 71.4035 15.9107 71.7978 15.7143V17.335C71.3049 17.6133 70.7463 17.777 70.0069 17.777ZM76.8256 17.8097C74.8704 17.8097 73.7367 16.5001 73.7367 14.4865V8.98608H75.7248V13.8972C75.7248 15.2396 76.3984 16.009 77.5814 16.009C78.7315 16.009 79.5366 15.2068 79.5366 13.8644V8.98608H81.5247V17.6296H79.5366V16.2873C78.978 17.1058 78.1729 17.8097 76.8256 17.8097ZM86.9961 17.7933C85.7638 17.7933 84.4001 17.3513 83.3157 16.5001L84.2029 15.1577C85.1395 15.8616 86.1582 16.2218 87.0454 16.2218C87.8998 16.2218 88.3927 15.8616 88.3927 15.2887V15.2559C88.3927 14.5847 87.4726 14.3556 86.4539 14.0445C85.1723 13.6844 83.7429 13.1605 83.7429 11.5071V11.4744C83.7429 9.83733 85.1066 8.83874 86.8318 8.83874C87.9162 8.83874 89.0992 9.21526 90.0193 9.82096L89.2307 11.2288C88.3927 10.7213 87.5055 10.4103 86.7825 10.4103C86.0103 10.4103 85.5667 10.7704 85.5667 11.2779V11.3107C85.5667 11.9327 86.5032 12.1947 87.5219 12.5221C88.787 12.915 90.2165 13.4879 90.2165 15.0431V15.0759C90.2165 16.893 88.8035 17.7933 86.9961 17.7933Z"
                    fill="#212121" />
                <path id="pocus__logo" fill-rule="evenodd" clip-rule="evenodd"
                    d="M38.1809 32.8415V21.8734H38.986V23.7396C39.7089 22.6428 40.7769 21.6769 42.4364 21.6769C44.4574 21.6769 46.5112 23.2976 46.5112 26.0151V26.0478C46.5112 28.7653 44.4574 30.4187 42.4364 30.4187C40.7605 30.4187 39.6761 29.4692 38.986 28.4215V32.8415H38.1809ZM42.3543 29.6493C44.1781 29.6493 45.6404 28.3233 45.6404 26.0805V26.0478C45.6404 23.8542 44.1123 22.4463 42.3543 22.4463C40.6126 22.4463 38.9367 23.9033 38.9367 26.0314V26.0642C38.9367 28.2087 40.6126 29.6493 42.3543 29.6493ZM52.7384 30.4187C50.2574 30.4187 48.45 28.4215 48.45 26.0805V26.0478C48.45 23.7068 50.2738 21.6769 52.7712 21.6769C55.2523 21.6769 57.0596 23.6741 57.0596 26.0151V26.0478C57.0596 28.3888 55.2358 30.4187 52.7384 30.4187ZM52.7712 29.6657C54.7593 29.6657 56.1888 28.045 56.1888 26.0805V26.0478C56.1888 24.0342 54.6772 22.4299 52.7384 22.4299C50.7503 22.4299 49.3208 24.0506 49.3208 26.0151V26.0478C49.3208 28.0614 50.8324 29.6657 52.7712 29.6657ZM63.2375 30.4187C60.8222 30.4187 58.9656 28.4215 58.9656 26.0805V26.0478C58.9656 23.7068 60.8386 21.6769 63.2375 21.6769C64.8148 21.6769 65.8007 22.3972 66.5893 23.2157L66.0143 23.8051C65.2913 23.0684 64.4698 22.4299 63.2211 22.4299C61.3151 22.4299 59.8364 24.0179 59.8364 26.0151V26.0478C59.8364 28.0614 61.3644 29.6657 63.2868 29.6657C64.4698 29.6657 65.3899 29.0599 66.0964 28.2742L66.6551 28.7653C65.8007 29.7311 64.782 30.4187 63.2375 30.4187ZM72.11 30.4187C69.9905 30.4187 68.7582 28.9781 68.7582 26.9809V21.8734H69.5633V26.8336C69.5633 28.5525 70.5327 29.682 72.225 29.682C73.8681 29.682 75.1332 28.4379 75.1332 26.7026V21.8734H75.9383V30.2222H75.1332V28.6671C74.5746 29.6493 73.638 30.4187 72.11 30.4187ZM81.7055 30.3859C80.4896 30.3859 79.1587 29.8948 78.2715 29.1745L78.748 28.5361C79.6681 29.24 80.6868 29.6329 81.7547 29.6329C82.8885 29.6329 83.7757 29.0108 83.7757 28.045V28.0122C83.7757 27.03 82.7241 26.6699 81.5576 26.3425C80.1938 25.9496 78.6822 25.5403 78.6822 24.0506V24.0179C78.6822 22.6755 79.8159 21.7097 81.4426 21.7097C82.4448 21.7097 83.5785 22.0698 84.4165 22.6264L83.9893 23.2976C83.2171 22.7901 82.297 22.4627 81.4097 22.4627C80.2596 22.4627 79.5038 23.0848 79.5038 23.9197V23.9524C79.5038 24.8855 80.6375 25.2293 81.8369 25.5731C83.1842 25.9496 84.5972 26.4407 84.5972 27.914V27.9468C84.5972 29.4365 83.3156 30.3859 81.7055 30.3859Z"
                    fill="#212121" />
            </g>
            <g id="Group 3__logo">
                <path id="Combined Shape__logo" fill-rule="evenodd" clip-rule="evenodd"
                    d="M17.6946 6.29529C19.088 6.29529 20.2221 5.16498 20.2221 3.77551V0.877956C18.6387 0.3196 16.9431 0 15.1667 0C8.97563 0 3.6582 3.7026 1.30244 9.00282C4.71607 7.28469 8.55969 6.29604 12.6388 6.29604L17.6946 6.29529ZM0.241908 12.5003C3.8129 10.1773 8.06563 8.81469 12.6388 8.81469L17.6946 8.81356C20.483 8.81356 22.75 6.55369 22.75 3.77551V2.03849C23.6558 2.5602 24.4987 3.17484 25.2726 3.86618C25.2233 7.99076 21.8453 11.3322 17.6946 11.3322L12.6388 11.3333C7.87226 11.3333 3.49288 12.9937 0.0333667 15.753C0.029752 15.6746 0.0243022 15.5965 0.018849 15.5183C0.00942963 15.3833 0 15.2482 0 15.1111C0 14.2184 0.0925167 13.3503 0.241908 12.5003ZM17.6946 16.3691C22.739 16.3691 27.0797 13.4168 29.1079 9.15922C28.6699 8.14111 28.1129 7.18798 27.4714 6.29982C26.3418 10.6348 22.3936 13.8505 17.6946 13.8505L12.6388 13.852C7.91776 13.852 3.63242 15.7152 0.455379 18.7291C0.684017 19.649 0.992279 20.5368 1.37979 21.3815C4.15567 18.3124 8.16573 16.3702 12.6388 16.3702L17.6946 16.3691ZM30.088 12.4697C27.3413 16.348 22.8194 18.8889 17.6946 18.8889H12.6388C8.60405 18.8889 5.01979 20.7789 2.70573 23.7135C3.20206 24.4256 3.75602 25.0943 4.36459 25.7104C6.19483 23.1132 9.21906 21.4075 12.6388 21.4075H17.6946C22.6158 21.4075 27.0702 19.3917 30.2803 16.1489C30.2842 16.0908 30.2884 16.0327 30.2925 15.9746L30.2926 15.9739V15.9739V15.9739V15.9738C30.3129 15.6882 30.3333 15.4022 30.3333 15.1111C30.3333 14.2082 30.2397 13.3291 30.088 12.4697ZM6.2972 27.3507C7.65386 25.2907 9.98763 23.9258 12.6388 23.9258H17.6946C22.0834 23.9258 26.139 22.5106 29.4567 20.1333C27.3773 26.0066 21.7736 30.2222 15.1667 30.2222C11.8516 30.2222 8.79288 29.1497 6.2972 27.3507Z" />
            </g>
        </g>
    </symbol>
    <symbol id="phone" viewBox="0 0 60 60" xmlns="http://www.w3.org/2000/svg">
        <g id="Group 15__phone">
            <path id="Oval 2__phone" fill-rule="evenodd" clip-rule="evenodd"
                d="M30 60C46.5685 60 60 46.5685 60 30C60 13.4315 46.5685 0 30 0C13.4315 0 0 13.4315 0 30C0 46.5685 13.4315 60 30 60Z"
                fill="white" />
            <path id="Combined Shape__phone" fill-rule="evenodd" clip-rule="evenodd"
                d="M40 27.5645V21.0486C40 20.4723 39.5277 20 38.9513 20H29.0444C28.464 20 27.9917 20.4723 27.9917 21.0486V27.5645C27.9917 28.1449 28.464 28.6172 29.0444 28.6172H30.1412V31.0586C30.1412 31.2187 30.2373 31.3668 30.3854 31.4269C30.4374 31.4469 30.4894 31.4588 30.5415 31.4588C30.6456 31.4588 30.7456 31.4189 30.8217 31.3428L33.5476 28.6172H38.9513C39.5277 28.6172 40 28.1449 40 27.5645ZM33.6036 37.6946C33.6036 37.5025 33.5275 37.3184 33.3914 37.1823L30.7216 34.5127C30.4374 34.2286 29.9731 34.2286 29.6889 34.5127L28.8003 35.4012C28.5681 35.6334 27.3753 35.3412 26.0184 33.9804C24.6574 32.6236 24.3652 31.4308 24.5974 31.1987L25.486 30.3102C25.7702 30.026 25.7702 29.5617 25.486 29.2775L22.8162 26.608C22.5319 26.3238 22.0716 26.3238 21.7874 26.608L20.5386 27.8567C19.1296 29.2655 20.5746 32.9158 23.8288 36.1697C26.2385 38.5791 28.8683 40 30.6415 40C31.262 40 31.7783 39.8239 32.1426 39.4597L33.3914 38.2109C33.5275 38.0748 33.6036 37.8907 33.6036 37.6946Z" />
        </g>
    </symbol>
    <symbol id="shield" viewBox="0 0 60 60" xmlns="http://www.w3.org/2000/svg">
        <g id="Group 15__shield">
            <path id="Oval 2__shield" opacity="0.1" fill-rule="evenodd" clip-rule="evenodd"
                d="M30 60C46.5685 60 60 46.5685 60 30C60 13.4315 46.5685 0 30 0C13.4315 0 0 13.4315 0 30C0 46.5685 13.4315 60 30 60Z"
                fill="#D8D8D8" />
            <path id="Shape__shield" fill-rule="evenodd" clip-rule="evenodd"
                d="M37.4207 21L37.7887 21.1088C38.5078 21.3213 39.0002 21.9731 39 22.7123V31.6317C38.9998 33.9555 38.0182 36.1746 36.2902 37.7576C33.027 40.7475 27.9722 40.7475 24.709 37.7576C22.9813 36.1745 22 33.9554 22 31.6317V22.7123C21.9998 21.9731 22.4922 21.3213 23.2113 21.1088L23.5793 21C28.0937 19.6667 32.9063 19.6667 37.4207 21ZM29.2938 32.6091L35.2439 28.4248L35.243 28.4231C35.6251 28.1546 35.7138 27.6319 35.441 27.2557C35.1683 26.8794 34.6374 26.7921 34.2553 27.0607L28.891 30.8333L26.851 28.8248C26.5174 28.5076 25.9873 28.5122 25.6594 28.835C25.3315 29.1578 25.3269 29.6798 25.649 30.0081L28.199 32.5188C28.2454 32.5568 28.2958 32.5896 28.3495 32.6167C28.3808 32.6404 28.4137 32.662 28.4481 32.6811C28.5579 32.7336 28.678 32.7621 28.8 32.7648C28.8989 32.7628 28.9967 32.7438 29.089 32.7087C29.1181 32.6967 29.1465 32.683 29.174 32.6677C29.2155 32.6515 29.2556 32.6319 29.2938 32.6091Z" />
        </g>
    </symbol>
    <symbol id="star" viewBox="0 0 60 60" xmlns="http://www.w3.org/2000/svg">
        <g id="Group 15__star">
            <path id="Oval 2__star" opacity="0.1" fill-rule="evenodd" clip-rule="evenodd"
                d="M30 60C46.5685 60 60 46.5685 60 30C60 13.4315 46.5685 0 30 0C13.4315 0 0 13.4315 0 30C0 46.5685 13.4315 60 30 60Z"
                fill="#D8D8D8" />
            <path id="Combined Shape__star" fill-rule="evenodd" clip-rule="evenodd"
                d="M34.6594 24.2442C34.6594 26.5889 32.7976 28.4894 30.5 28.4894C28.2034 28.4894 26.3406 26.5889 26.3406 24.2442C26.3406 21.8999 28.2034 20 30.5 20C32.7976 20 34.6594 21.8999 34.6594 24.2442ZM23.4918 35.0062C23.3377 35.0064 23.1776 34.9625 23.0161 34.876L22.0589 34.3642L21.1012 34.876C20.7053 35.0879 20.2977 35.0297 20.0645 34.7466C19.9531 34.6116 19.8344 34.3698 19.8999 33.9842L20.0819 32.9031L19.3087 32.1365C19.0402 31.8709 18.9403 31.5477 19.0349 31.25C19.1295 30.9521 19.3966 30.7498 19.768 30.6951L20.8377 30.5371L21.3158 29.5516C21.4811 29.2099 21.7521 29.0137 22.0589 29.0137C22.3654 29.0137 22.6362 29.2098 22.802 29.5516L23.2803 30.537L24.3503 30.6951C24.7213 30.7498 24.9882 30.952 25.0829 31.2497C25.1772 31.5473 25.0776 31.8706 24.8088 32.1367L24.0358 32.903L24.2181 33.9849C24.2834 34.3703 24.1641 34.612 24.053 34.7467C23.9147 34.9141 23.7154 35.0062 23.4918 35.0062ZM40.1623 30.5371L41.2323 30.6951C41.6034 30.7498 41.8705 30.9521 41.9651 31.25C42.0597 31.5477 41.9598 31.8709 41.691 32.1368L40.9181 32.9031L41.1001 33.9849C41.1656 34.37 41.0469 34.6117 40.9355 34.7466C40.7974 34.9141 40.5982 35.0062 40.3745 35.0062C40.2204 35.0062 40.0603 34.9625 39.8988 34.876L38.9411 34.3642L37.9842 34.876C37.5878 35.0879 37.1806 35.0292 36.947 34.7468C36.8359 34.612 36.7166 34.3703 36.7819 33.9848L36.9642 32.903L36.191 32.1365C35.9224 31.8706 35.8228 31.5473 35.9171 31.2497C36.0118 30.952 36.2787 30.7498 36.6497 30.6951L37.7197 30.537L38.198 29.5515C38.3638 29.2098 38.6346 29.0137 38.9411 29.0137C39.2479 29.0137 39.5189 29.2099 39.6845 29.5519L40.1623 30.5371ZM33.2341 36.8239L34.5201 35.4849C34.8544 35.1374 34.9784 34.7311 34.8606 34.37C34.7442 34.0142 34.4152 33.7695 33.9581 33.6986L32.1979 33.4257L31.407 31.7135C31.1138 31.0798 30.6751 31.0112 30.5002 31.0112C30.3249 31.0112 29.8859 31.0798 29.594 31.7137L28.8026 33.4256L27.0421 33.6986C26.5848 33.7695 26.2555 34.0144 26.1394 34.3704C26.0214 34.7317 26.1456 35.1379 26.4794 35.4845L27.7661 36.824L27.4619 38.7196C27.3795 39.2296 27.5267 39.5345 27.6645 39.7005C27.9465 40.0396 28.4394 40.0969 28.9307 39.8213L30.5002 38.9405L32.0693 39.8213C32.2805 39.9399 32.4875 40.0001 32.6839 40C32.9434 40 33.1746 39.8937 33.3352 39.7005C33.4733 39.5345 33.6207 39.2297 33.5385 38.7204L33.2341 36.8239Z" />
        </g>
    </symbol>
</svg>