<svg width="60" height="60" viewBox="0 0 60 60" fill="none" xmlns="http://www.w3.org/2000/svg">
<g id="Group 15">
<path id="Oval 2" opacity="0.1" fill-rule="evenodd" clip-rule="evenodd" d="M30 60C46.5685 60 60 46.5685 60 30C60 13.4315 46.5685 0 30 0C13.4315 0 0 13.4315 0 30C0 46.5685 13.4315 60 30 60Z" fill="#D8D8D8"/>
<path id="Combined Shape" fill-rule="evenodd" clip-rule="evenodd" d="M34.6594 24.2442C34.6594 26.5889 32.7976 28.4894 30.5 28.4894C28.2034 28.4894 26.3406 26.5889 26.3406 24.2442C26.3406 21.8999 28.2034 20 30.5 20C32.7976 20 34.6594 21.8999 34.6594 24.2442ZM23.4918 35.0062C23.3377 35.0064 23.1776 34.9625 23.0161 34.876L22.0589 34.3642L21.1012 34.876C20.7053 35.0879 20.2977 35.0297 20.0645 34.7466C19.9531 34.6116 19.8344 34.3698 19.8999 33.9842L20.0819 32.9031L19.3087 32.1365C19.0402 31.8709 18.9403 31.5477 19.0349 31.25C19.1295 30.9521 19.3966 30.7498 19.768 30.6951L20.8377 30.5371L21.3158 29.5516C21.4811 29.2099 21.7521 29.0137 22.0589 29.0137C22.3654 29.0137 22.6362 29.2098 22.802 29.5516L23.2803 30.537L24.3503 30.6951C24.7213 30.7498 24.9882 30.952 25.0829 31.2497C25.1772 31.5473 25.0776 31.8706 24.8088 32.1367L24.0358 32.903L24.2181 33.9849C24.2834 34.3703 24.1641 34.612 24.053 34.7467C23.9147 34.9141 23.7154 35.0062 23.4918 35.0062ZM40.1623 30.5371L41.2323 30.6951C41.6034 30.7498 41.8705 30.9521 41.9651 31.25C42.0597 31.5477 41.9598 31.8709 41.691 32.1368L40.9181 32.9031L41.1001 33.9849C41.1656 34.37 41.0469 34.6117 40.9355 34.7466C40.7974 34.9141 40.5982 35.0062 40.3745 35.0062C40.2204 35.0062 40.0603 34.9625 39.8988 34.876L38.9411 34.3642L37.9842 34.876C37.5878 35.0879 37.1806 35.0292 36.947 34.7468C36.8359 34.612 36.7166 34.3703 36.7819 33.9848L36.9642 32.903L36.191 32.1365C35.9224 31.8706 35.8228 31.5473 35.9171 31.2497C36.0118 30.952 36.2787 30.7498 36.6497 30.6951L37.7197 30.537L38.198 29.5515C38.3638 29.2098 38.6346 29.0137 38.9411 29.0137C39.2479 29.0137 39.5189 29.2099 39.6845 29.5519L40.1623 30.5371ZM33.2341 36.8239L34.5201 35.4849C34.8544 35.1374 34.9784 34.7311 34.8606 34.37C34.7442 34.0142 34.4152 33.7695 33.9581 33.6986L32.1979 33.4257L31.407 31.7135C31.1138 31.0798 30.6751 31.0112 30.5002 31.0112C30.3249 31.0112 29.8859 31.0798 29.594 31.7137L28.8026 33.4256L27.0421 33.6986C26.5848 33.7695 26.2555 34.0144 26.1394 34.3704C26.0214 34.7317 26.1456 35.1379 26.4794 35.4845L27.7661 36.824L27.4619 38.7196C27.3795 39.2296 27.5267 39.5345 27.6645 39.7005C27.9465 40.0396 28.4394 40.0969 28.9307 39.8213L30.5002 38.9405L32.0693 39.8213C32.2805 39.9399 32.4875 40.0001 32.6839 40C32.9434 40 33.1746 39.8937 33.3352 39.7005C33.4733 39.5345 33.6207 39.2297 33.5385 38.7204L33.2341 36.8239Z" fill="#DE3C3C"/>
</g>
</svg>
